<svg width="420" height="399" viewBox="0 0 420 399" fill="none" xmlns="http://www.w3.org/2000/svg">
<path d="M184.213 248.323C183.84 248.323 183.649 248.323 183.649 248.323C182.944 248.306 182.339 247.825 182.165 247.145C181.991 246.464 182.289 245.751 182.903 245.403C188.41 242.25 191.305 238.111 191.761 232.735C193.038 217.688 175.131 194.427 139.981 165.468C132.425 159.247 124.271 153.349 115.057 147.442C100.177 137.919 89.0047 127.658 81.8468 116.948C76.8786 109.549 73.76 101.826 72.5905 94.0033C68.9743 69.9882 84.3683 53.0573 85.0318 52.3439C85.3387 52.0121 85.7534 51.8462 86.1764 51.8462C86.4667 51.8462 86.7653 51.9291 87.0307 52.095C87.6693 52.5098 87.9182 53.3228 87.6113 54.0196C86.1681 57.3709 85.8612 60.0752 86.6906 62.1076C87.1634 56.3921 89.6682 53.4804 89.8009 53.3311C90.0995 52.9909 90.5308 52.8001 90.9704 52.8001C91.0948 52.8001 91.2192 52.8167 91.3437 52.8499C91.9077 52.9909 92.3472 53.4306 92.4883 53.9947C92.9942 56.0768 93.6826 58.1507 94.5369 60.1582C100.227 73.5884 112.203 81.7013 121.252 86.1393C127.556 89.2335 132.416 90.5193 132.466 90.5359C158.344 97.1556 183.625 119.661 200.263 137.372C218.228 156.493 230.296 174.311 230.412 174.485C230.429 174.51 230.445 174.535 230.453 174.56C243.251 195.937 246.08 213.216 238.88 225.933C226.547 247.692 188.51 248.314 184.213 248.314V248.323Z" fill="#EFE7DB"/>
<path d="M86.1681 53.4057C82.8753 61.0789 85.7119 64.6211 88.2748 66.1972C87.5283 58.2668 90.9621 54.368 90.9621 54.368C91.5095 56.6243 92.2394 58.7562 93.0937 60.772C98.9826 74.6668 111.333 83.012 120.556 87.5412C127.092 90.7516 132.06 92.0456 132.06 92.0456C181.476 104.68 229.11 175.365 229.11 175.365C270.887 245.162 191.537 246.755 184.205 246.755C183.857 246.755 183.666 246.755 183.666 246.755C205.679 234.154 189.746 204.448 140.959 164.257C132.989 157.695 124.578 151.689 115.886 146.123C99.9696 135.937 89.6019 125.758 83.1324 116.069C77.8656 108.222 75.1617 100.698 74.1167 93.7545C70.5751 70.2122 86.1598 53.3974 86.1598 53.3974M86.1598 50.2701C85.3138 50.2701 84.4761 50.6102 83.8706 51.2738C83.1905 52.0038 67.3072 69.4739 71.0312 94.2273C72.2422 102.282 75.4437 110.221 80.5364 117.819C87.8103 128.703 99.1402 139.114 114.202 148.761C123.359 154.626 131.463 160.491 138.977 166.679C173.215 194.892 191.404 218.301 190.194 232.611C189.787 237.431 187.141 241.172 182.115 244.05C180.896 244.747 180.299 246.174 180.639 247.534C180.987 248.895 182.198 249.857 183.6 249.882C183.6 249.882 183.807 249.882 184.197 249.882C187.125 249.882 197.559 249.658 208.988 246.829C224.299 243.03 234.808 236.261 240.224 226.705C247.73 213.465 244.885 195.655 231.78 173.755C231.756 173.705 231.722 173.664 231.689 173.614C231.565 173.432 219.43 155.514 201.382 136.302C176.964 110.312 153.898 94.4098 132.823 89.0178C132.79 89.0178 128.054 87.7486 121.916 84.7374C113.108 80.4155 101.454 72.5349 95.9552 59.5526C95.1341 57.6198 94.4706 55.6289 93.9812 53.6297C93.7075 52.5015 92.8283 51.6139 91.692 51.3319C91.4432 51.2738 91.1944 51.2406 90.9455 51.2406C90.2156 51.2406 89.5023 51.4978 88.9301 51.9706C88.6895 51.4978 88.3246 51.083 87.8518 50.7761C87.3293 50.436 86.7404 50.2701 86.1515 50.2701H86.1598Z" fill="#191924"/>
<g style="mix-blend-mode:multiply">
<path d="M97.9126 87.4417C98.7752 91.8797 99.9447 96.268 101.537 100.49C103.072 104.563 105.104 108.396 107.443 112.062C112.344 119.761 118.416 126.82 124.819 133.307C137.542 146.215 150.066 159.346 161.57 173.365C167.343 180.4 172.85 187.658 177.968 195.191C180.539 198.982 183.011 202.839 185.358 206.779C187.556 210.462 189.547 214.245 191.645 217.978C194.432 222.939 197.559 228.944 195.585 234.751C194.515 237.903 192.043 240.741 189.538 242.864C188.369 243.86 187.092 244.739 185.731 245.477C185.118 245.909 184.462 246.315 183.774 246.713C183.774 246.713 272.994 248.464 229.218 175.323C229.218 175.323 181.576 104.646 132.168 92.0042C132.168 92.0042 127.199 90.7101 120.664 87.4998C112.884 83.6839 102.889 77.1471 96.4114 66.8691C95.781 73.7294 96.6105 80.7058 97.9209 87.4417H97.9126Z" fill="#EFE7DB"/>
</g>
<path d="M93.0937 60.772C98.9826 74.6668 111.333 83.012 120.556 87.5412C118.764 90.0382 116.724 92.3526 114.459 94.4181C107.02 101.229 97.7965 102.34 89.6351 107.55C86.5496 109.524 84.7083 112.693 83.1407 116.069C77.8739 108.222 75.17 100.698 74.125 93.7545C76.9367 90.9009 81.034 89.192 84.7498 87.4085C89.7346 85.0277 94.9184 80.1998 95.2336 74.1276C95.4907 69.2084 93.6909 65.1769 93.0854 60.772H93.0937Z" fill="#CB181C"/>
<path d="M210.108 255.05C194.291 255.05 179.826 249.99 179.212 249.774C178.549 249.542 178.126 248.895 178.175 248.19C178.225 247.493 178.739 246.904 179.428 246.771C185.648 245.519 189.704 242.499 191.827 237.547C197.783 223.66 188.12 195.945 163.884 157.38C158.659 149.06 152.779 140.897 145.919 132.428C144.484 130.669 143.041 128.811 141.631 126.919C132.914 115.19 126.984 103.784 124.014 93.0079C121.642 84.4471 121.12 76.1351 122.463 68.3125C122.563 67.7153 122.687 67.1097 122.812 66.529C127.639 43.725 147.205 32.8166 147.396 32.7087C147.636 32.576 147.885 32.5179 148.142 32.5179C148.607 32.5179 149.063 32.7253 149.361 33.1069C149.834 33.7042 149.809 34.5503 149.303 35.1144C146.881 37.8436 145.745 40.3156 145.886 42.4973C148.134 37.2214 151.435 35.2471 151.601 35.1476C151.841 35.0065 152.115 34.9319 152.389 34.9319C152.679 34.9319 152.969 35.0148 153.218 35.1725C153.708 35.4794 153.99 36.0352 153.948 36.6159C153.774 38.7975 153.782 40.9875 153.956 43.1194C154.429 48.9843 156.204 54.8491 159.231 60.5563C162.126 66.023 166.124 71.2906 171.117 76.2015C172.784 77.8522 174.584 79.4615 176.467 80.9962C177.528 81.8589 178.399 82.506 178.93 82.9041C179.818 83.5512 180.34 83.8913 180.365 83.9079C183.915 86.1808 187.473 88.9349 190.948 92.0954C227.094 124.779 246.669 193.78 246.859 194.469C246.859 194.494 246.876 194.527 246.876 194.552C251.703 216.253 250.011 232.42 241.858 242.59C235.223 250.861 224.54 255.058 210.1 255.058L210.108 255.05Z" fill="#EFE7DB"/>
<path d="M148.134 34.0692C142.602 40.3073 144.169 44.5628 146.102 46.8607C147.902 39.0962 152.38 36.4914 152.38 36.4914C152.198 38.8141 152.206 41.0539 152.389 43.2522C152.928 49.9465 155.035 56.0022 157.838 61.2863C161.338 67.8895 165.941 73.3064 170.014 77.313C172.029 79.3122 173.92 80.9381 175.471 82.199C176.475 83.012 177.338 83.6673 177.993 84.1484C178.955 84.8535 179.502 85.2102 179.502 85.2102C183.11 87.5164 186.569 90.229 189.887 93.2402C226.116 125.999 245.35 194.884 245.35 194.884C256.132 243.37 232.062 253.491 210.1 253.491C194.374 253.491 179.726 248.306 179.726 248.306C204.592 243.287 198.836 210.072 165.203 156.551C159.712 147.807 153.625 139.462 147.13 131.449C145.629 129.607 144.219 127.782 142.875 125.99C133.619 113.531 128.22 102.415 125.507 92.5932C122.986 83.4848 122.795 75.4963 123.99 68.578C124.089 67.9973 124.205 67.4083 124.321 66.8525C128.958 44.9444 147.537 34.4093 148.126 34.0858M148.126 30.9584C147.976 30.9584 147.827 30.9667 147.678 30.9916C147.263 31.0496 146.873 31.1907 146.533 31.398C144.957 32.3022 126.063 43.5757 121.269 66.2055C121.153 66.753 121.02 67.4 120.912 68.0637C119.536 76.1019 120.066 84.6379 122.505 93.431C125.524 104.389 131.537 115.97 140.37 127.857C141.805 129.773 143.265 131.648 144.708 133.423C151.526 141.843 157.374 149.956 162.566 158.218C186.171 195.779 196.058 223.735 190.393 236.933C188.485 241.379 184.794 244.1 179.121 245.245C177.744 245.519 176.724 246.688 176.624 248.09C176.525 249.492 177.371 250.786 178.698 251.259C179.32 251.475 194.034 256.626 210.116 256.626C225.054 256.626 236.143 252.238 243.094 243.569C251.562 233.009 253.354 216.41 248.419 194.22C248.41 194.162 248.394 194.112 248.377 194.054C248.327 193.88 243.401 176.377 234.086 155.107C221.521 126.413 207.362 104.821 192.002 90.9341C188.468 87.7238 184.836 84.9116 181.211 82.5889C181.211 82.5889 180.713 82.2654 179.859 81.6349C179.345 81.2533 178.499 80.6146 177.454 79.7685C175.588 78.2504 173.879 76.7158 172.228 75.0899C167.343 70.2785 163.437 65.1437 160.617 59.8181C157.689 54.3016 155.972 48.6442 155.516 42.995C155.341 40.9295 155.341 38.8307 155.507 36.732C155.599 35.5706 155.043 34.459 154.056 33.8369C153.55 33.5217 152.969 33.3558 152.397 33.3558C151.999 33.3558 151.609 33.4304 151.236 33.5797C151.012 32.1115 149.768 30.9833 148.25 30.9418C148.217 30.9418 148.184 30.9418 148.15 30.9418L148.126 30.9584Z" fill="#191924"/>
<path d="M193.03 118.442V118.466C190.666 128.803 184.885 138.367 176.641 145.037C180.838 139.578 179.95 131.789 177.993 125.202C176.666 120.764 174.65 116.102 170.57 113.912C167.725 112.394 164.365 112.344 161.147 112.038C156.046 111.548 150.647 110.022 146.84 106.803C144.393 114.974 146.293 124.871 153.359 129.566C149.71 128.877 146.193 127.641 142.892 125.982C133.636 113.522 128.236 102.407 125.524 92.5849C123.002 83.4765 122.812 75.4881 124.006 68.5697C124.106 67.989 124.222 67.4 124.338 66.8443C124.52 67.1429 124.703 67.4415 124.91 67.7153C127.166 70.8924 130.741 72.4934 134.482 73.1653C136.066 73.4474 137.733 73.4806 139.342 73.5884C141.051 73.7045 142.743 73.8124 144.435 73.9866C147.636 74.3184 150.97 74.8493 153.857 76.3757C155.408 77.1969 156.793 78.3085 157.838 79.7187C159.082 81.3778 159.762 83.3687 160.135 85.3927C160.243 85.9734 161.239 85.9071 161.197 85.2932C160.915 81.0708 160.028 76.9315 158.186 73.099C156.511 69.59 154.13 66.4793 151.626 63.5261C150.332 61.9915 148.996 60.4817 147.661 58.9719C151.07 59.6439 154.545 60.2245 157.863 61.278C161.363 67.8812 165.966 73.2981 170.039 77.3047C172.054 79.3039 173.945 80.9298 175.496 82.1907C175.787 83.1115 176.077 84.0323 176.367 84.9614C176.508 85.4176 177.072 85.5255 177.346 85.1273C177.586 84.8038 177.81 84.472 178.018 84.1484C178.98 84.8535 179.527 85.2103 179.527 85.2103C183.135 87.5164 186.594 90.229 189.912 93.2402C191.388 101.743 192.383 110.262 193.038 118.442H193.03Z" fill="#F49700"/>
<g style="mix-blend-mode:multiply">
<path d="M148.565 70.0712C147.985 74.5507 147.711 79.08 147.893 83.601C148.067 87.9477 148.789 92.2282 149.851 96.4422C152.082 105.293 155.615 113.904 159.638 122.083C167.65 138.342 175.397 154.759 181.891 171.69C185.151 180.184 188.095 188.811 190.575 197.571C191.819 201.976 192.955 206.423 193.942 210.894C194.863 215.083 195.56 219.297 196.381 223.503C197.468 229.086 198.537 235.772 194.83 240.666C192.814 243.32 189.58 245.237 186.536 246.464C185.109 247.037 183.616 247.468 182.098 247.742C181.377 247.958 180.63 248.14 179.851 248.298C179.851 248.298 263.97 278.086 245.474 194.875C245.474 194.875 222.541 112.776 179.635 85.202C179.635 85.202 175.33 82.4064 170.13 77.2965C163.951 71.2242 156.519 61.867 153.616 50.071C150.854 56.3838 149.444 63.2607 148.557 70.0712H148.565Z" fill="#EFE7DB"/>
</g>
<path d="M239.726 229.011C221.811 229.011 204.269 221.064 203.539 220.732C202.9 220.442 202.535 219.753 202.643 219.065C202.751 218.376 203.315 217.837 204.012 217.762C210.315 217.065 214.628 214.419 217.183 209.674C224.349 196.377 217.199 167.907 196.497 127.343C193.337 121.146 189.737 114.841 185.806 108.595C184.338 106.231 182.712 103.709 180.813 100.88C170.951 86.1891 164.797 72.3192 162.508 59.6604C161.703 55.2888 161.355 50.9752 161.471 46.8523C161.579 42.771 162.143 38.7643 163.163 34.9319C169.4 11.5223 190.276 2.08212 191.156 1.69224C191.363 1.60099 191.57 1.55951 191.786 1.55951C192.3 1.55951 192.79 1.80837 193.088 2.25632C193.511 2.88677 193.412 3.7329 192.856 4.25551C190.202 6.76072 188.85 9.11661 188.792 11.2983C191.496 6.2464 194.971 4.57074 195.145 4.48778C195.352 4.38824 195.585 4.33846 195.809 4.33846C196.149 4.33846 196.481 4.44631 196.754 4.66199C197.219 5.01869 197.443 5.59936 197.343 6.17175C196.978 8.26218 196.787 10.4356 196.763 12.6422C196.638 27.2172 204.393 39.4363 210.912 47.1178C215.458 52.46 219.406 55.5791 219.447 55.6123L220.111 56.1432C222.673 58.1756 225.203 60.4734 227.609 62.9537C261.897 98.1593 275.706 170.926 275.839 171.656C275.839 171.681 275.847 171.715 275.856 171.739C278.634 193.05 275.806 208.671 267.462 218.177C261.158 225.361 251.827 229.003 239.726 229.003V229.011Z" fill="#EFE7DB"/>
<path d="M191.786 3.12735C185.723 8.85117 186.909 13.2228 188.634 15.6783C191.106 8.11288 195.809 5.90631 195.809 5.90631C195.411 8.19584 195.228 10.4356 195.203 12.6339C195.071 27.7232 203.074 40.299 209.726 48.1298C214.446 53.6795 218.493 56.84 218.493 56.84C218.709 57.0142 218.925 57.1884 219.14 57.3543C221.695 59.3867 224.15 61.6181 226.489 64.0321C260.852 99.3041 274.305 171.93 274.305 171.93C280.16 216.908 259.931 227.435 239.718 227.435C221.944 227.435 204.178 219.297 204.178 219.297C229.383 216.51 226.613 182.922 197.882 126.613C194.589 120.159 190.99 113.879 187.125 107.749C185.507 105.136 183.824 102.556 182.107 100.001C171.573 84.306 166.116 70.8509 164.042 59.3784C163.221 54.9238 162.922 50.7678 163.03 46.8938C163.138 42.7047 163.735 38.8639 164.672 35.3301C170.702 12.6753 191.147 3.4011 191.778 3.11906M191.778 -0.00830617C191.628 -0.00830617 191.471 -1.07829e-05 191.322 0.0248754C191.015 0.0663523 190.716 0.157602 190.442 0.290328C188.767 1.04521 167.949 10.867 161.653 34.5171C160.6 38.4657 160.019 42.5968 159.912 46.8026C159.795 51.0332 160.152 55.4547 160.973 59.9342C163.296 72.8003 169.533 86.861 179.519 101.735C181.402 104.538 183.027 107.044 184.479 109.391C188.402 115.613 191.968 121.876 195.112 128.031C215.275 167.55 222.624 196.277 215.814 208.919C213.517 213.175 209.602 215.556 203.846 216.194C202.452 216.352 201.324 217.414 201.109 218.799C200.885 220.185 201.615 221.553 202.892 222.134C203.638 222.474 221.487 230.554 239.735 230.554C252.3 230.554 262.029 226.73 268.64 219.197C277.299 209.342 280.252 193.299 277.415 171.524C277.415 171.466 277.398 171.416 277.39 171.358C277.357 171.175 273.898 152.718 266.251 130.196C255.933 99.8018 243.309 76.807 228.737 61.8421C226.29 59.312 223.71 56.9727 221.089 54.8906L220.451 54.3763C220.384 54.3265 216.544 51.2904 212.115 46.0809C205.762 38.6067 198.214 26.7277 198.33 12.6339C198.355 10.5102 198.537 8.41981 198.886 6.42062C199.085 5.27586 198.629 4.10621 197.708 3.4011C197.152 2.97803 196.481 2.76235 195.809 2.76235C195.502 2.76235 195.203 2.80383 194.905 2.89508C194.805 1.31066 193.528 0.0497616 191.935 -0.0166016C191.886 -0.0166016 191.836 -0.0166016 191.786 -0.0166016L191.778 -0.00830617Z" fill="#191924"/>
<path d="M231.266 97.7612V97.7861C228.902 108.114 223.121 117.678 214.877 124.356C219.074 118.898 218.186 111.117 216.212 104.522C214.894 100.084 212.878 95.4219 208.797 93.2319C205.944 91.7138 202.593 91.6558 199.367 91.3571C194.266 90.8677 188.875 89.3414 185.068 86.1227C182.604 94.2937 184.52 104.19 191.587 108.885C190.077 108.595 188.601 108.23 187.141 107.765C185.524 105.152 183.84 102.573 182.123 100.018C171.59 84.3226 166.132 70.8675 164.059 59.395C163.238 54.9404 162.939 50.7844 163.047 46.9104C163.08 46.9519 163.113 47.01 163.146 47.0514C165.402 50.2286 168.977 51.8296 172.718 52.5015C174.302 52.7836 175.969 52.8167 177.578 52.9246C179.27 53.0407 180.979 53.1486 182.671 53.3228C185.872 53.6463 189.207 54.1855 192.093 55.7118C193.644 56.5331 195.029 57.6447 196.074 59.0549C197.318 60.714 197.998 62.7048 198.372 64.7289C198.479 65.3096 199.475 65.2432 199.433 64.6294C199.151 60.3987 198.264 56.2676 196.422 52.4352C194.739 48.9262 192.367 45.8154 189.862 42.8623C188.568 41.3276 187.233 39.8179 185.889 38.3081C190.832 39.2787 195.925 40.0667 200.437 42.3894C205.646 45.0854 209.229 49.9134 211.485 55.2307C212.729 58.1756 213.633 61.2532 214.595 64.3059C214.744 64.7621 215.3 64.8699 215.59 64.4718C217.174 62.2818 218.344 59.8927 219.165 57.3792C221.72 59.4116 224.175 61.643 226.514 64.057C228.927 75.3387 230.412 86.861 231.283 97.7778L231.266 97.7612Z" fill="#CB181C"/>
<g style="mix-blend-mode:multiply">
<path d="M189.007 39.0049C188.029 43.4181 187.357 47.9059 187.133 52.4186C186.917 56.7654 187.257 61.0872 187.938 65.3843C189.364 74.3931 192.126 83.294 195.402 91.7968C201.93 108.703 208.184 125.75 213.152 143.187C215.64 151.938 217.805 160.79 219.497 169.732C220.351 174.236 221.073 178.757 221.662 183.303C222.209 187.55 222.524 191.823 222.964 196.078C223.544 201.736 224.017 208.488 219.895 213.034C217.656 215.498 214.263 217.124 211.111 218.069C209.643 218.509 208.117 218.816 206.575 218.949C205.836 219.098 205.082 219.214 204.285 219.297C204.285 219.297 285.419 256.46 274.404 171.93C274.404 171.93 258.878 88.1136 218.593 56.8317C218.593 56.8317 214.553 53.6629 209.834 48.1133C204.219 41.5101 197.65 31.5391 195.809 19.5273C192.499 25.5664 190.484 32.2939 188.991 38.9966L189.007 39.0049Z" fill="#EFE7DB"/>
</g>
<path d="M251.197 244.216C230.254 244.216 208.54 228.721 207.628 228.057C207.056 227.642 206.832 226.904 207.08 226.248C207.313 225.635 207.893 225.228 208.54 225.228C208.582 225.228 208.631 225.228 208.673 225.228C209.395 225.286 210.1 225.319 210.788 225.319C216.353 225.319 220.55 223.345 223.627 219.272C232.726 207.235 231.084 178.119 218.875 135.066C216.942 128.238 214.57 121.162 211.841 114.053C210.896 111.565 209.851 108.952 208.64 106.057C201.822 89.7395 198.471 74.9405 198.687 62.0744C198.712 60.6642 198.77 59.3784 198.861 58.1341C199.383 50.7927 201.158 43.9904 204.128 37.9348C214.811 16.1428 237.105 10.9748 238.051 10.7591C238.167 10.7342 238.275 10.7259 238.391 10.7259C239.013 10.7259 239.594 11.0992 239.834 11.6965C240.124 12.4016 239.867 13.2062 239.22 13.6127C236.127 15.5538 234.335 17.6028 233.862 19.743C237.495 15.3133 241.219 14.351 241.41 14.3012C241.534 14.2681 241.659 14.2598 241.783 14.2598C242.223 14.2598 242.654 14.4506 242.953 14.7907C243.334 15.2303 243.45 15.8442 243.243 16.3834C242.48 18.3826 241.866 20.473 241.427 22.6132C238.466 36.8979 243.699 50.3862 248.609 59.1876C252.027 65.3179 255.294 69.1504 255.328 69.1835C255.734 69.6564 256.14 70.1292 256.539 70.6186C260.603 75.5461 264.343 81.4358 267.661 88.1053C288.645 130.105 288.114 193.332 288.106 193.971C288.106 193.996 288.106 194.029 288.106 194.054C285.369 235.514 266.533 244.216 251.214 244.216H251.197Z" fill="#EFE7DB"/>
<path d="M238.391 12.302C231.324 16.7401 231.631 21.2694 232.842 24.0234C236.74 17.0719 241.775 15.8276 241.775 15.8276C240.946 18.001 240.332 20.1578 239.884 22.3063C236.815 37.0804 242.223 50.9834 247.232 59.9508C250.782 66.305 254.125 70.2039 254.125 70.2039C254.523 70.6684 254.921 71.1329 255.311 71.6058C259.491 76.6826 263.116 82.5059 266.243 88.8021C287.302 130.951 286.522 193.955 286.522 193.955C284.001 232.138 268.026 242.657 251.189 242.657C230.511 242.657 208.532 226.796 208.532 226.796C209.295 226.862 210.05 226.896 210.78 226.896C234.028 226.896 237.089 193.623 220.359 134.651C218.327 127.492 215.947 120.449 213.276 113.506C212.248 110.81 211.169 108.13 210.058 105.468C202.776 88.039 200.03 73.7709 200.229 62.1076C200.254 60.7886 200.304 59.5194 200.404 58.2668C200.951 50.5355 202.85 44.0651 205.521 38.6316C215.997 17.2627 238.383 12.2937 238.383 12.2937M238.383 9.16638C238.291 9.16638 238.192 9.16638 238.101 9.18297C237.935 9.19956 237.777 9.22445 237.628 9.26593C235.836 9.6807 213.517 15.2386 202.718 37.2546C199.657 43.4927 197.832 50.4857 197.293 58.0428C197.194 59.2954 197.136 60.6144 197.111 62.0578C196.895 75.1479 200.279 90.1543 207.18 106.67C208.383 109.557 209.428 112.162 210.357 114.617C213.077 121.693 215.424 128.72 217.349 135.505C229.242 177.455 231.026 206.879 222.358 218.343C219.596 221.993 215.806 223.768 210.763 223.768C210.124 223.768 209.461 223.735 208.781 223.685C208.69 223.685 208.598 223.677 208.515 223.677C207.221 223.677 206.044 224.482 205.587 225.718C205.098 227.037 205.546 228.513 206.691 229.334C207.62 230.006 229.732 245.784 251.172 245.784C267.155 245.784 286.804 236.825 289.624 194.162C289.624 194.104 289.624 194.054 289.624 193.996C289.624 193.341 289.79 177.803 287.36 156.824C285.104 137.397 280.094 109.582 269.013 87.4085C265.646 80.6395 261.839 74.6502 257.7 69.6232C257.302 69.1338 256.887 68.6526 256.472 68.1715C256.447 68.1383 253.271 64.4054 249.936 58.4327C245.151 49.8636 240.05 36.7569 242.92 22.945C243.343 20.8878 243.931 18.872 244.67 16.9558C245.084 15.8691 244.86 14.6413 244.097 13.7703C243.5 13.0901 242.638 12.7168 241.758 12.7168C241.659 12.7168 241.568 12.7168 241.468 12.7334C241.485 12.5924 241.493 12.4597 241.493 12.3186C241.493 10.6678 240.216 9.3157 238.59 9.19956C238.515 9.19956 238.441 9.19956 238.366 9.19956L238.383 9.16638Z" fill="#191924"/>
<path d="M268.582 109.059H268.573C266.218 119.412 260.437 128.977 252.192 135.654C256.389 130.18 255.502 122.398 253.528 115.804C252.209 111.382 250.194 106.712 246.113 104.522C243.268 103.004 239.909 102.946 236.682 102.647C231.581 102.158 226.19 100.631 222.383 97.4127C219.92 105.584 221.836 115.48 228.902 120.167C223.279 119.105 217.962 116.774 213.284 113.506C212.256 110.81 211.178 108.13 210.066 105.468C202.784 88.039 200.039 73.7709 200.238 62.1076C200.263 60.7886 200.312 59.5194 200.412 58.2668C200.42 58.2917 200.445 58.3083 200.453 58.3332C202.709 61.5103 206.284 63.1113 210.025 63.7749C211.609 64.057 213.276 64.0985 214.885 64.2063C216.577 64.3141 218.286 64.4303 219.978 64.6045C223.179 64.928 226.514 65.4672 229.4 66.9935C230.951 67.8148 232.336 68.9181 233.381 70.3366C234.625 71.9957 235.306 73.9866 235.67 76.0023C235.787 76.5996 236.782 76.5332 236.74 75.9028C236.458 71.6804 235.571 67.541 233.73 63.7169C232.046 60.2079 229.674 57.0971 227.169 54.144C225.875 52.6093 224.54 51.0996 223.196 49.5898C228.139 50.5521 233.232 51.3401 237.744 53.6711C242.953 56.3671 246.536 61.1868 248.792 66.5041C250.036 69.4656 250.94 72.5349 251.902 75.5793C252.051 76.0438 252.607 76.1434 252.897 75.7535C253.843 74.4345 254.656 73.0575 255.328 71.6058C259.508 76.6826 263.132 82.5059 266.259 88.8021C267.304 95.6541 268.059 102.481 268.59 109.059H268.582Z" fill="#F49700"/>
<g style="mix-blend-mode:multiply">
<path d="M228.678 46.9768C226.862 51.1162 225.328 55.3883 224.233 59.7683C223.179 63.9906 222.673 68.2959 222.508 72.6427C222.159 81.7593 223.13 91.0253 224.706 100.001C227.824 117.853 230.652 135.787 232.129 153.863C232.875 162.938 233.273 172.038 233.19 181.138C233.149 185.717 232.983 190.305 232.676 194.875C232.386 199.156 231.872 203.403 231.474 207.667C230.943 213.333 230.097 220.052 225.17 223.702C222.491 225.684 218.85 226.613 215.582 226.937C214.056 227.086 212.497 227.086 210.962 226.92C210.216 226.92 209.444 226.887 208.648 226.821C208.648 226.821 281.015 279.04 286.638 193.988C286.638 193.988 287.683 108.753 254.249 70.237C254.249 70.237 250.899 66.3465 247.349 59.9839C243.127 52.4185 238.623 41.3525 239.146 29.2163C234.725 34.5005 231.44 40.7055 228.678 46.9934V46.9768Z" fill="#EFE7DB"/>
</g>
<path d="M268.673 263.578C241.858 263.578 217.49 232.329 216.461 231.002C216.03 230.446 216.03 229.674 216.453 229.11C216.751 228.712 217.224 228.488 217.705 228.488C217.896 228.488 218.087 228.521 218.278 228.596C221.114 229.716 223.843 230.28 226.373 230.28C245.565 230.28 256.721 197.663 257.783 138.425L257.816 135.953C257.957 125.086 257.401 113.954 256.107 101.901C255.344 94.7168 255.004 87.8565 255.104 81.5022C255.27 70.5772 256.729 60.6891 259.442 52.1282C262.386 42.7295 266.881 34.7079 272.812 28.279C288.322 11.4725 309.339 10.1701 315.411 10.1701C316.58 10.1701 317.252 10.2199 317.285 10.2199C318.04 10.278 318.654 10.8669 318.728 11.6218C318.803 12.3767 318.322 13.0818 317.592 13.2809C313.387 14.4506 310.691 16.3004 309.613 18.7227C314.531 15.222 318.654 15.0146 319.558 15.0146C319.682 15.0146 319.74 15.0146 319.74 15.0146C320.321 15.0478 320.843 15.3962 321.084 15.9271C321.324 16.458 321.258 17.0719 320.91 17.5281C319.458 19.4112 318.139 21.4602 316.995 23.6004C309.306 37.8602 310.6 53.8868 313.038 64.8119C314.739 72.4104 317.003 77.5204 317.028 77.5702C317.302 78.1675 317.567 78.7813 317.824 79.3952C325.347 97.1722 327.96 121.013 325.587 150.254C322.585 187.152 312.466 219.969 312.367 220.301C312.367 220.326 312.35 220.35 312.342 220.384C301.709 249.044 287.02 263.569 268.681 263.569L268.673 263.578Z" fill="#EFE7DB"/>
<path d="M315.411 11.738C316.539 11.738 317.169 11.7794 317.169 11.7794C308.269 14.2515 307.166 19.1623 307.573 22.4556C313.403 16.8064 318.728 16.5825 319.549 16.5825C319.624 16.5825 319.657 16.5825 319.657 16.5825C318.081 18.6231 316.746 20.7302 315.601 22.8787C307.672 37.5864 309.016 54.0527 311.504 65.1686C313.262 73.0409 315.593 78.2255 315.593 78.2255C315.867 78.8228 316.124 79.4201 316.381 80.0256C324.957 100.308 325.961 126.181 324.02 150.138C321.001 187.293 310.865 219.844 310.865 219.844C299.005 251.798 283.561 262.018 268.673 262.018C242.322 262.018 217.697 230.048 217.697 230.048C220.741 231.251 223.636 231.84 226.364 231.84C246.776 231.84 258.255 198.733 259.342 138.45C259.35 137.629 259.367 136.799 259.375 135.97C259.524 124.53 258.878 113.099 257.658 101.735C256.879 94.4264 256.572 87.7072 256.663 81.5271C256.837 70.1292 258.405 60.5729 260.926 52.6011C264.053 42.6051 268.69 35.048 273.948 29.3408C289.01 13.0237 309.356 11.738 315.394 11.738M315.394 8.6106C309.165 8.6106 287.592 9.95445 271.651 27.2255C265.563 33.8203 260.951 42.0493 257.94 51.672C255.187 60.3738 253.702 70.403 253.536 81.4856C253.437 87.8897 253.777 94.8163 254.548 102.066C255.834 114.053 256.389 125.128 256.248 135.928L256.215 138.409C255.676 168.139 252.632 191.126 247.15 206.713C242.024 221.313 235.024 228.712 226.364 228.712C224.025 228.712 221.496 228.181 218.842 227.136C218.468 226.987 218.079 226.92 217.697 226.92C216.735 226.92 215.806 227.368 215.2 228.165C214.354 229.285 214.363 230.836 215.225 231.947C216.27 233.3 241.103 265.137 268.673 265.137C287.725 265.137 302.911 250.264 313.793 220.931C313.81 220.881 313.835 220.823 313.851 220.774C313.951 220.442 324.119 187.459 327.139 150.395C329.527 120.905 326.881 96.8155 319.259 78.8145C318.985 78.1758 318.72 77.5536 318.438 76.9397C318.421 76.9066 316.215 71.9127 314.556 64.4883C312.176 53.8205 310.899 38.2003 318.355 24.3635C319.466 22.2814 320.735 20.3154 322.137 18.4987C322.842 17.5862 322.967 16.3502 322.485 15.2967C322.004 14.2432 320.959 13.5381 319.806 13.4717C320.171 12.8993 320.354 12.2025 320.279 11.4808C320.13 9.97104 318.911 8.7848 317.393 8.67696C317.318 8.67696 316.613 8.62719 315.411 8.62719L315.394 8.6106Z" fill="#191924"/>
<path d="M324.02 150.138C320.478 156.94 315.593 163.038 309.621 167.857C314.639 161.337 313.586 152.055 311.23 144.199C309.654 138.906 307.249 133.348 302.38 130.735C298.98 128.91 294.974 128.861 291.15 128.487C285.062 127.915 278.634 126.082 274.089 122.249C271.161 131.996 273.434 143.792 281.861 149.383C273.55 147.807 265.795 143.908 259.35 138.442C259.359 137.621 259.375 136.791 259.383 135.961C259.533 124.522 258.886 113.091 257.667 101.726C256.887 94.4181 256.58 87.6989 256.671 81.5188C257.542 81.7759 258.455 81.9833 259.359 82.1409C261.258 82.4728 263.232 82.5225 265.156 82.647C267.172 82.788 269.204 82.9207 271.219 83.1198C275.043 83.5097 279.024 84.1567 282.45 85.9651C284.307 86.9357 285.95 88.2629 287.202 89.9469C288.678 91.9295 289.5 94.2937 289.939 96.7159C290.072 97.4211 291.258 97.3381 291.216 96.5998C290.868 91.5728 289.815 86.6287 287.625 82.058C285.618 77.8771 282.781 74.1774 279.804 70.6518C278.253 68.8185 276.652 67.0267 275.068 65.2266C280.957 66.3797 287.036 67.3088 292.411 70.096C298.623 73.3146 302.903 79.0551 305.59 85.401C307.083 88.9183 308.161 92.5931 309.306 96.2265C309.48 96.774 310.135 96.8819 310.484 96.4173C314.001 91.5728 315.792 85.8739 316.398 80.009C324.974 100.291 325.977 126.165 324.036 150.122L324.02 150.138Z" fill="#CB181C"/>
<g style="mix-blend-mode:multiply">
<path d="M295.903 45.5168C292.668 49.3327 289.69 53.3808 287.144 57.6944C284.689 61.8421 282.79 66.2553 281.239 70.8177C277.987 80.3906 276.096 90.5276 274.927 100.557C272.596 120.499 269.925 140.424 265.787 160.084C263.705 169.948 261.258 179.736 258.297 189.375C256.804 194.228 255.187 199.04 253.412 203.793C251.753 208.239 249.862 212.586 248.095 216.991C245.74 222.839 242.72 229.699 236.334 232.022C232.867 233.283 228.703 233.117 225.129 232.42C223.461 232.097 221.811 231.599 220.235 230.944C219.439 230.711 218.634 230.429 217.813 230.106C217.813 230.106 278.137 308.423 310.981 219.902C310.981 219.902 339.032 129.748 315.709 78.2919C315.709 78.2919 313.387 73.099 311.628 65.2266C309.538 55.8611 308.253 42.6881 312.649 29.9712C306.287 34.177 300.838 39.7349 295.919 45.5334L295.903 45.5168Z" fill="#EFE7DB"/>
</g>
<path d="M265.737 285.561C234.999 285.561 216.046 241.636 215.258 239.762C214.985 239.115 215.176 238.368 215.723 237.928C216.005 237.704 216.353 237.588 216.693 237.588C217.017 237.588 217.34 237.688 217.614 237.887C221.446 240.682 225.311 242.101 229.11 242.101C246.586 242.101 264.41 212.329 279.298 158.259C280.252 154.809 281.147 151.217 281.977 147.575C283.627 140.416 285.071 132.784 286.265 124.879C288.455 110.312 292.021 97.6367 296.865 87.2094C298.474 83.7503 300.224 80.5151 302.074 77.5785C307.291 69.2333 313.677 62.6136 321.042 57.8935C329.992 52.1614 340.243 49.2497 351.49 49.2497C361.418 49.2497 368.344 51.5641 368.634 51.6637C369.356 51.9043 369.795 52.6342 369.671 53.3891C369.555 54.144 368.908 54.6998 368.153 54.7081C363.699 54.7745 360.639 55.8777 358.996 57.9848C362.032 56.8317 364.587 56.5414 366.386 56.5414C368.427 56.5414 369.646 56.9064 369.779 56.9478C370.335 57.1221 370.749 57.5866 370.849 58.1673C370.948 58.7397 370.724 59.3203 370.268 59.677C368.394 61.1204 366.602 62.7629 364.943 64.5547C353.904 76.4088 351.109 92.2364 350.702 103.419C350.511 108.694 350.86 112.826 351.084 114.825L351.117 115.14C351.241 116.185 351.333 116.766 351.333 116.791C356.326 145.916 344.996 181.619 334.62 206.431C323.406 233.225 310.849 253.474 310.724 253.673C310.708 253.698 310.691 253.723 310.675 253.739C295.894 274.851 280.766 285.552 265.72 285.552L265.737 285.561Z" fill="#EFE7DB"/>
<path d="M351.498 50.8258C361.277 50.8258 368.145 53.1569 368.145 53.1569C358.897 53.2979 356.599 57.7691 356.152 61.0707C360.44 58.6484 364.048 58.1092 366.395 58.1092C368.253 58.1092 369.323 58.441 369.323 58.441C367.282 60.0171 365.458 61.7094 363.807 63.4929C352.419 75.7203 349.566 91.9876 349.151 103.361C348.969 108.52 349.284 112.676 349.541 114.999C349.549 115.115 349.566 115.223 349.574 115.331C349.707 116.434 349.798 117.04 349.798 117.04C359.353 172.735 309.406 252.852 309.406 252.852C293.257 275.905 278.493 284.001 265.737 284.001C235.687 284.001 216.693 239.156 216.693 239.156C220.832 242.184 224.988 243.669 229.11 243.669C247.581 243.669 265.604 213.863 280.807 158.683C281.786 155.124 282.682 151.54 283.503 147.932C285.236 140.399 286.655 132.776 287.808 125.128C290.105 109.856 293.754 97.6284 298.275 87.8814C299.884 84.4305 301.584 81.2865 303.392 78.4246C308.949 69.5403 315.336 63.41 321.88 59.2208C332.223 52.5928 342.964 50.8258 351.49 50.8258M351.49 47.6985C339.936 47.6985 329.403 50.6848 320.196 56.5828C312.64 61.4191 306.096 68.213 300.746 76.7572C298.872 79.7353 297.08 83.0368 295.446 86.5541C290.545 97.1224 286.937 109.939 284.722 124.655C283.536 132.511 282.101 140.109 280.459 147.227C279.638 150.852 278.742 154.419 277.797 157.845C270.299 185.07 262.129 206.058 253.519 220.243C245.341 233.714 237.13 240.541 229.118 240.541C225.659 240.541 222.101 239.222 218.543 236.626C217.996 236.228 217.349 236.029 216.702 236.029C216.013 236.029 215.325 236.253 214.761 236.701C213.658 237.572 213.276 239.073 213.824 240.367C214.023 240.84 218.825 252.072 227.459 263.462C239.195 278.941 252.433 287.12 265.737 287.12C281.322 287.12 296.873 276.195 311.968 254.644C312.002 254.594 312.035 254.552 312.06 254.503C312.184 254.303 324.808 233.947 336.071 207.036C351.291 170.661 356.948 140.2 352.884 116.509C352.884 116.509 352.801 115.961 352.685 114.999L352.66 114.709C352.66 114.709 352.66 114.667 352.66 114.651C352.444 112.701 352.104 108.653 352.286 103.477C352.676 92.56 355.397 77.1222 366.105 65.6248C367.705 63.8994 369.43 62.315 371.239 60.913C372.159 60.1996 372.607 59.0383 372.4 57.8852C372.192 56.7405 371.371 55.8031 370.26 55.4547C370.26 55.4547 370.26 55.4547 370.252 55.4547C370.758 54.9901 371.114 54.3597 371.23 53.638C371.463 52.1365 370.592 50.6848 369.148 50.1954C368.85 50.0959 361.684 47.6985 351.498 47.6985H351.49Z" fill="#191924"/>
<path d="M349.732 114.609C349.674 114.85 349.632 115.099 349.583 115.331C345.751 133.282 338.261 151.499 330.257 167.451H330.249C322.867 175.074 312.964 180.251 302.447 181.677C308.866 179.18 312.159 172.071 313.884 165.41C315.062 160.931 315.751 155.904 313.395 151.905C311.753 149.135 308.908 147.351 306.312 145.41C302.198 142.357 298.383 138.243 296.79 133.514C290.453 139.222 286.945 148.678 290.553 156.352C287.816 153.879 285.46 151.042 283.503 147.923C285.236 140.391 286.655 132.768 287.808 125.119C290.105 109.848 293.754 97.6201 298.275 87.8731C298.275 88.1551 298.283 88.4371 298.308 88.7275C298.598 92.6097 300.813 95.8532 303.674 98.3584C304.885 99.4285 306.287 100.316 307.614 101.237C308.999 102.216 310.401 103.195 311.745 104.215C314.324 106.173 316.895 108.346 318.562 111.158C319.466 112.66 320.072 114.319 320.238 116.077C320.429 118.143 319.989 120.192 319.259 122.125C319.043 122.689 319.939 123.137 320.221 122.589C322.162 118.831 323.555 114.825 323.978 110.611C324.36 106.737 323.937 102.838 323.331 99.0221C323.016 97.0395 322.651 95.0486 322.295 93.0743C326.019 96.4671 329.967 99.7769 332.613 104.107C335.681 109.118 336.237 115.099 335.4 120.814C334.943 123.975 334.114 127.085 333.359 130.196C333.243 130.661 333.658 131.034 334.114 130.843C341.181 127.882 346.223 121.743 349.549 115.007C349.558 114.974 349.583 114.958 349.591 114.924C349.641 114.825 349.69 114.717 349.732 114.626V114.609Z" fill="#F49700"/>
<g style="mix-blend-mode:multiply">
<path d="M339.024 80.4155C334.927 83.2857 331.02 86.4545 327.47 89.9801C324.053 93.3729 321.092 97.1639 318.438 101.179C312.873 109.615 308.477 118.948 304.811 128.355C297.512 147.061 289.889 165.667 280.915 183.635C276.411 192.652 271.568 201.503 266.259 210.081C263.589 214.394 260.802 218.642 257.891 222.798C255.162 226.68 252.234 230.404 249.406 234.22C245.648 239.281 240.987 245.154 234.227 245.784C230.553 246.124 226.572 244.913 223.287 243.337C221.753 242.599 220.285 241.703 218.925 240.666C218.211 240.235 217.506 239.762 216.793 239.247C216.793 239.247 255.344 330.273 309.513 252.943C309.513 252.943 359.453 172.818 349.898 117.131C349.898 117.131 348.96 111.523 349.251 103.46C349.599 93.8706 351.681 80.8054 359.154 69.6066C351.938 72.0703 345.253 76.0604 339.032 80.4321L339.024 80.4155Z" fill="#EFE7DB"/>
</g>
<path d="M262.054 305.992C246.353 305.992 233.597 295.598 225.178 275.921C218.925 261.313 217.266 246.962 217.199 246.357C217.125 245.66 217.515 244.996 218.17 244.731C218.361 244.656 218.56 244.623 218.75 244.623C219.231 244.623 219.688 244.838 219.994 245.237C224.025 250.529 228.894 253.208 234.468 253.208C250.409 253.208 272.314 232.304 297.81 192.76C299.229 190.57 300.531 188.513 301.8 186.472C307.539 177.272 312.831 167.459 317.973 156.468C321.764 148.38 325.87 141.047 330.166 134.676C335.275 127.102 340.799 120.69 346.597 115.605C353.97 109.101 361.974 104.572 370.384 102.141C375.22 100.748 380.238 100.034 385.305 100.034C403.884 100.034 417.221 109.333 417.785 109.723C418.408 110.163 418.623 110.984 418.291 111.673C418.026 112.228 417.47 112.56 416.881 112.56C416.74 112.56 416.599 112.544 416.458 112.502C414.625 111.988 412.95 111.722 411.482 111.722C409.574 111.722 407.998 112.162 406.779 113.025C407.385 112.975 407.982 112.958 408.579 112.958C414.144 112.958 417.263 115.007 417.396 115.099C417.877 115.422 418.142 115.986 418.076 116.567C418.009 117.148 417.636 117.637 417.089 117.853C414.841 118.732 412.651 119.802 410.594 121.021C396.619 129.25 389.436 143.618 385.878 154.228C385.048 156.7 384.327 159.23 383.721 161.744C382.95 165.062 382.676 167.185 382.676 167.21C379.997 189.649 367.133 215.581 344.44 244.283C344.424 244.299 344.415 244.316 344.399 244.332C324.899 268.97 304.968 286.705 304.769 286.879C304.753 286.896 304.728 286.913 304.703 286.938C288.786 299.571 274.446 305.984 262.062 305.984L262.054 305.992Z" fill="#EFE7DB"/>
<path d="M385.297 101.61C403.586 101.61 416.873 111.017 416.873 111.017C414.791 110.428 413.008 110.179 411.474 110.179C406.456 110.179 404.166 112.859 403.138 115.181C405.162 114.717 406.978 114.534 408.562 114.534C413.721 114.534 416.508 116.409 416.508 116.409C414.111 117.347 411.88 118.45 409.782 119.694C395.375 128.18 388.001 142.954 384.377 153.747C383.406 156.65 382.693 159.271 382.187 161.403C381.374 164.871 381.109 167.036 381.109 167.036C377.957 193.424 360.647 221.263 343.196 243.337H343.188C323.539 268.182 303.724 285.735 303.724 285.735C286.713 299.24 273.036 304.441 262.054 304.441C225.294 304.441 218.75 246.199 218.75 246.199C223.146 251.964 228.421 254.785 234.468 254.785C251.015 254.785 273.326 233.631 299.121 193.623C300.448 191.574 301.783 189.467 303.127 187.31C309.182 177.604 314.548 167.492 319.392 157.14C323.29 148.828 327.338 141.685 331.468 135.563C336.76 127.724 342.184 121.577 347.633 116.791C355.48 109.872 363.359 105.816 370.824 103.659C375.875 102.199 380.752 101.619 385.305 101.619M385.305 98.4912C380.097 98.4912 374.93 99.2212 369.953 100.656C361.319 103.153 353.108 107.79 345.56 114.451C339.671 119.62 334.056 126.131 328.872 133.813C324.526 140.25 320.387 147.65 316.555 155.812C311.429 166.754 306.171 176.509 300.473 185.651C299.212 187.683 297.918 189.732 296.5 191.922C271.667 230.446 249.638 251.657 234.468 251.657C229.342 251.657 225.012 249.252 221.239 244.299C220.633 243.503 219.704 243.072 218.75 243.072C218.361 243.072 217.962 243.146 217.589 243.296C216.287 243.818 215.491 245.145 215.648 246.547C215.715 247.161 217.407 261.736 223.752 276.552C232.436 296.842 245.681 307.568 262.062 307.568C274.802 307.568 289.483 301.048 305.673 288.19C305.715 288.157 305.756 288.115 305.806 288.082C306.005 287.908 326.019 270.09 345.601 245.361C345.626 245.336 345.643 245.311 345.659 245.286C368.535 216.352 381.507 190.155 384.219 167.418C384.219 167.418 384.484 165.352 385.239 162.125C385.82 159.678 386.533 157.189 387.354 154.751C390.829 144.398 397.821 130.379 411.382 122.398C413.381 121.212 415.488 120.184 417.661 119.337C418.739 118.914 419.502 117.927 419.627 116.766C419.751 115.613 419.229 114.485 418.267 113.829C418.88 113.531 419.395 113.025 419.71 112.369C420.365 111.001 419.934 109.35 418.698 108.471C418.126 108.064 404.382 98.4912 385.314 98.4912H385.305Z" fill="#191924"/>
<path d="M372.756 195.788C368.137 201.744 361.933 206.771 354.377 208.247C353.895 208.339 353.564 207.891 353.771 207.451C355.14 204.564 356.575 201.694 357.669 198.683C359.643 193.249 360.299 187.285 358.316 181.752C356.599 176.982 353.406 172.934 350.445 168.861C350.395 170.877 350.346 172.884 350.254 174.9C350.072 178.766 349.699 182.664 348.546 186.381C347.285 190.437 345.12 194.071 342.45 197.364C342.06 197.845 341.28 197.215 341.604 196.709C342.707 194.975 343.561 193.05 343.785 190.993C343.976 189.243 343.727 187.492 343.146 185.833C342.068 182.756 339.994 180.093 337.863 177.671C336.743 176.393 335.574 175.157 334.404 173.921C333.301 172.743 332.107 171.59 331.136 170.296C328.847 167.26 327.321 163.643 327.827 159.786C328.275 156.401 330 153.349 331.891 150.545C329.096 151.183 326.359 152.046 323.804 153.357C322.494 154.037 321.25 154.817 320.072 155.696C319.84 156.177 319.607 156.65 319.383 157.14C314.54 167.492 309.173 177.604 303.119 187.31C301.783 189.467 300.44 191.574 299.113 193.623C297.595 204.349 300.124 215.705 306.569 224.457C304.587 216.211 309.928 207.659 317.285 203.345C317.891 208.297 320.793 213.092 324.202 216.924C326.351 219.338 328.781 221.661 329.826 224.714C331.327 229.094 329.635 233.889 327.578 238.036C324.534 244.208 319.881 250.512 313.088 251.657C323.672 252.379 334.421 249.318 343.188 243.345H343.196C354.418 229.144 365.574 212.561 372.955 195.522C372.889 195.614 372.823 195.705 372.756 195.796V195.788Z" fill="#CB181C"/>
<g style="mix-blend-mode:multiply">
<path d="M381.208 128.861C376.464 130.445 371.819 132.37 367.407 134.742C363.16 137.023 359.245 139.811 355.563 142.913C347.824 149.417 340.957 157.106 334.761 165.078C322.444 180.931 309.837 196.592 296.118 211.267C289.234 218.633 282.068 225.734 274.545 232.445C270.755 235.821 266.881 239.098 262.9 242.25C259.176 245.195 255.311 247.933 251.512 250.786C246.469 254.569 240.332 258.874 233.672 257.547C230.047 256.825 226.58 254.527 223.884 252.089C222.624 250.944 221.471 249.666 220.467 248.289C219.912 247.675 219.364 247.02 218.825 246.323C218.825 246.323 229.865 344.566 303.807 285.859C303.807 285.859 374.49 223.27 381.192 167.169C381.192 167.169 381.888 161.528 384.468 153.879C387.528 144.779 393.251 132.851 403.602 124.248C395.98 124.555 388.441 126.48 381.233 128.894L381.208 128.861Z" fill="#EFE7DB"/>
</g>
<path d="M121.725 249.484L123.077 243.785L87.9845 236.045L86.0188 334.371L91.5842 334.089L89.1789 336.444L87.9845 345.976L107.078 347.452L108.985 335.474L134.283 296.917C137.451 292.089 139.823 286.788 141.324 281.214L147.18 259.43C145.944 250.654 126.859 249.608 121.725 249.492V249.484Z" fill="#EFE7DB" stroke="#191924" stroke-width="2.8" stroke-linecap="round" stroke-linejoin="round"/>
<g style="mix-blend-mode:multiply">
<path d="M121.725 249.484L123.077 243.785L87.9845 236.045L86.0188 334.371L91.5842 334.089L89.1789 336.444L87.9845 345.976L107.078 347.452L108.985 335.474L134.283 296.917C137.451 292.089 139.823 286.788 141.324 281.214L147.18 259.43C145.944 250.654 126.859 249.608 121.725 249.492V249.484Z" fill="#EFE7DB"/>
</g>
<g style="mix-blend-mode:multiply">
<path d="M121.725 249.484L123.077 243.785L87.9845 236.045L86.0188 334.371L91.5842 334.089L89.1789 336.444L87.9845 345.976L107.078 347.452L108.985 335.474L134.283 296.917C137.451 292.089 139.823 286.788 141.324 281.214L147.18 259.43C145.944 250.654 126.859 249.608 121.725 249.492V249.484Z" fill="#EFE7DB"/>
</g>
<path d="M72.5242 117.322C72.5242 117.322 60.9787 97.4376 66.0879 70.6269C66.2538 69.7476 67.1993 69.2582 68.0122 69.6149C69.4968 70.2619 71.927 71.415 74.8797 73.1156C74.6392 71.5228 74.183 69.9633 73.5112 68.5033C75.5018 70.1541 77.3763 71.9459 79.118 73.8539C80.0304 74.8493 80.9179 75.9277 81.6146 77.0808C81.6892 75.3968 81.4487 73.6962 80.9013 72.1035C84.3102 74.0612 86.956 77.2716 88.3329 80.9464C88.5817 79.644 88.507 78.2753 88.1089 77.0061C89.0379 77.3545 89.6599 78.2172 90.2239 79.0385C91.8247 81.3861 93.384 83.7917 94.4788 86.4131C95.0263 87.7403 95.4576 89.1257 95.6898 90.5442C96.1543 89.4492 96.7017 88.3376 96.569 87.168C97.7965 89.6732 99.389 91.9959 100.534 94.5426C101.446 96.5666 102.051 98.8064 101.91 100.996C102.889 103.029 103.76 105.177 104.506 107.434" fill="#EFE7DB"/>
<path d="M72.5242 117.322C72.5242 117.322 60.9787 97.4376 66.0879 70.6269C66.2538 69.7476 67.1993 69.2582 68.0122 69.6149C69.4968 70.2619 71.927 71.415 74.8797 73.1156C74.6392 71.5228 74.183 69.9633 73.5112 68.5033C75.5018 70.1541 77.3763 71.9459 79.118 73.8539C80.0304 74.8493 80.9179 75.9277 81.6146 77.0808C81.6892 75.3968 81.4487 73.6962 80.9013 72.1035C84.3102 74.0612 86.956 77.2716 88.3329 80.9464C88.5817 79.644 88.507 78.2753 88.1089 77.0061C89.0379 77.3545 89.6599 78.2172 90.2239 79.0385C91.8247 81.3861 93.384 83.7917 94.4788 86.4131C95.0263 87.7403 95.4576 89.1257 95.6898 90.5442C96.1543 89.4492 96.7017 88.3376 96.569 87.168C97.7965 89.6732 99.389 91.9959 100.534 94.5426C101.446 96.5666 102.051 98.8064 101.91 100.996C102.889 103.029 103.76 105.177 104.506 107.434" stroke="#191924" stroke-width="2.8" stroke-linecap="round" stroke-linejoin="round"/>
<path d="M100.998 110.03C100.791 110.055 100.583 109.972 100.467 109.707C97.7716 103.435 94.1968 97.5621 89.9751 92.2033C85.8114 86.9191 80.8847 81.2699 75.1534 77.6448C73.6024 76.666 71.4459 75.4963 70.2516 77.5453C69.1319 79.4698 69.107 82.0414 69.2148 84.1899C69.5051 90.2289 71.0727 96.127 72.2837 102.017C72.5905 103.526 76.24 119.578 76.4722 119.503L101.662 111.706C101.471 111.133 101.247 110.569 100.998 110.013V110.03Z" fill="#F49700"/>
<path d="M210.68 358.419C210.34 358.419 210 358.377 209.66 358.278L200.039 355.706C198.919 355.391 198.015 354.62 197.542 353.574L191.346 339.763C190.235 337.291 190.069 334.42 190.857 331.699C194.515 319.09 193.105 305.03 186.544 288.713C184.653 284.001 181.211 280.019 176.84 277.497C170.968 274.113 165.228 273.955 160.169 273.823C153.973 273.657 148.117 273.499 144.036 267.36C143.522 266.597 142.718 266.149 141.822 266.149C140.744 266.149 139.541 266.813 139.292 268.29C138.828 271.151 137.559 273.831 135.618 276.046C133.81 278.111 131.487 279.671 128.883 280.558C124.844 288.124 104.714 320.459 102.698 323.694L99.6212 346.366C99.5466 346.938 99.0489 347.369 98.4683 347.369C95.8888 347.369 87.8767 349.908 85.0069 350.887C84.8825 350.928 84.7581 350.953 84.6337 350.953H66.2455C65.6981 350.953 65.2253 350.571 65.1092 350.032C63.4835 342.409 68.0868 340.866 68.2776 340.799C68.3771 340.766 68.4766 340.75 68.5762 340.75C78.5955 340.318 81.4985 332.098 81.6229 331.749L102.284 270.687L100.044 260.044C81.2331 243.569 75.3193 223.279 73.6688 209.127C71.8772 193.731 74.548 182.391 74.6641 181.918C76.0824 177.107 76.5386 173.083 76.0492 169.898C75.535 166.679 72.6071 164.24 69.2397 164.24H57.885C53.5637 164.24 49.3835 161.71 45.8087 156.924C44.971 155.804 44.1581 154.568 43.4614 153.34C42.1592 151.076 42.9472 148.114 45.2115 146.754L47.5753 145.335L54.9903 140.881C59.2701 138.309 62.2809 134.228 63.4587 129.383C63.5665 128.91 63.7075 128.272 63.7904 127.633L64.794 120.582C65.358 116.6 67.3072 112.9 70.2765 110.179C70.4258 110.038 70.5833 109.897 70.7326 109.773C80.8847 100.582 89.6599 97.4874 95.2253 96.5086C96.909 96.2099 98.5513 96.0606 100.102 96.0606C102.051 96.0606 103.296 96.3012 103.66 96.3841C103.66 96.3841 103.685 96.3841 103.702 96.3841C118.358 97.5538 127.946 109.068 133.412 118.525C137.443 125.509 140.312 133.365 141.955 141.876C143.365 149.201 144.982 155.779 146.757 161.42C150.216 172.445 157.855 181.545 168.264 187.044L172.369 189.251C196.605 202.267 219.497 214.569 223.254 242.342C225.361 257.879 221.131 267.817 216.221 279.331C214.097 284.325 211.899 289.484 209.975 295.59C209.146 298.219 208.142 300.824 207.163 303.346L206.923 303.96C203.182 313.732 204.061 326.905 204.916 333.889C205.198 336.245 205.944 338.51 207.139 340.617L213.948 352.72C214.628 353.915 214.62 355.333 213.931 356.511C213.243 357.689 211.991 358.419 210.647 358.419H210.68Z" fill="#EFE7DB"/>
<path d="M100.127 97.2137C102.3 97.2137 103.503 97.5289 103.503 97.5289C103.544 97.5289 103.586 97.5372 103.636 97.5372C117.47 98.6405 126.743 109.259 132.425 119.105C136.522 126.214 139.276 134.029 140.835 142.092C142.369 150.055 144.02 156.526 145.67 161.768C149.229 173.117 157.233 182.515 167.741 188.073C167.965 188.189 168.181 188.314 168.413 188.43C193.702 202.076 218.269 214.021 222.126 242.491C225.087 264.291 215.308 274.818 208.897 295.241C208.009 298.045 206.931 300.799 205.878 303.545C201.996 313.682 202.983 327.369 203.804 334.039C204.103 336.552 204.916 338.983 206.168 341.198L212.978 353.301C214.014 355.134 212.621 357.274 210.697 357.274C210.464 357.274 210.224 357.241 209.983 357.175L200.354 354.603C199.591 354.387 198.952 353.848 198.62 353.11L192.425 339.306C191.396 337.017 191.288 334.445 191.993 332.04C195.966 318.344 193.818 303.653 187.647 288.29C185.665 283.337 182.065 279.173 177.445 276.502C164.092 268.796 151.957 277.141 145.023 266.722C144.236 265.544 143.033 264.996 141.847 264.996C140.155 264.996 138.504 266.116 138.173 268.107C137.733 270.828 136.522 273.292 134.772 275.283C133.022 277.282 130.733 278.791 128.103 279.596C124.529 286.514 101.612 323.288 101.612 323.288L98.5015 346.2C95.1673 346.2 84.6668 349.783 84.6668 349.783H66.2787C64.8521 343.106 68.6674 341.903 68.6674 341.903C79.6572 341.43 82.7592 332.114 82.7592 332.114L103.519 270.753L101.131 259.422C64.8023 227.916 75.8253 182.183 75.8253 182.183C77.4758 176.584 77.6666 172.569 77.227 169.715C76.6132 165.858 73.1794 163.079 69.2729 163.079H57.9182C53.1158 163.079 49.3254 159.645 46.7708 156.227C45.8667 155.016 45.0954 153.813 44.5065 152.76C43.5029 151.009 44.1167 148.778 45.8419 147.741L48.2057 146.331L55.6207 141.876C60.1493 139.155 63.384 134.75 64.6198 129.657C64.7608 129.043 64.8935 128.413 64.9765 127.79L65.9801 120.739C66.5109 117.006 68.319 113.572 71.0976 111.025C71.2386 110.893 71.3796 110.768 71.5206 110.644C81.2994 101.793 89.7263 98.6405 95.4658 97.6367C97.3154 97.3132 98.8913 97.2054 100.144 97.2054M100.144 94.8827C98.5264 94.8827 96.8095 95.0403 95.0594 95.3472C89.353 96.3427 80.3622 99.5032 69.9862 108.894C69.8286 109.026 69.6793 109.167 69.5217 109.308C66.3616 112.212 64.2881 116.152 63.6826 120.399L62.679 127.442C62.5961 128.048 62.4634 128.653 62.3555 129.118C61.2607 133.622 58.4407 137.455 54.4263 139.86L47.0113 144.323L44.6558 145.733C41.8441 147.417 40.8736 151.084 42.4993 153.904C43.2126 155.165 44.0503 156.451 44.9212 157.604C48.7282 162.698 53.2237 165.385 57.9264 165.385H69.2812C72.0846 165.385 74.5148 167.401 74.9378 170.064C75.4023 173.058 74.9544 176.916 73.6024 181.503C73.5941 181.536 73.5775 181.578 73.5692 181.619C73.4531 182.1 70.7409 193.631 72.5491 209.235C74.2079 223.519 80.1548 243.967 99.0157 260.641L101.114 270.596L80.5529 331.351C80.4451 331.666 77.7412 339.165 68.5596 339.564C68.3605 339.572 68.1532 339.605 67.9624 339.671C67.7219 339.746 62.1565 341.604 64.0061 350.248C64.2383 351.318 65.1839 352.09 66.2787 352.09H84.6668C84.924 352.09 85.1728 352.048 85.4133 351.965C89.3365 350.63 96.3533 348.506 98.5015 348.506C99.6627 348.506 100.65 347.643 100.807 346.498L103.851 324.076C106.439 319.92 125.292 289.617 129.729 281.479C132.35 280.5 134.681 278.899 136.53 276.792C138.612 274.42 139.972 271.533 140.478 268.455C140.619 267.601 141.308 267.294 141.855 267.294C142.212 267.294 142.718 267.419 143.108 267.991C147.52 274.627 153.956 274.801 160.177 274.967C165.344 275.108 170.686 275.249 176.301 278.493C180.448 280.882 183.716 284.665 185.507 289.136C191.968 305.204 193.362 319.016 189.779 331.368C188.908 334.354 189.099 337.506 190.318 340.227L196.514 354.031C197.136 355.391 198.314 356.403 199.74 356.801L209.395 359.381C209.826 359.497 210.265 359.555 210.705 359.555C212.455 359.555 214.097 358.601 214.993 357.067C215.889 355.524 215.897 353.674 215.01 352.114L208.208 340.02C207.089 338.045 206.392 335.93 206.127 333.724C205.281 326.838 204.41 313.873 208.059 304.341L208.291 303.727C209.27 301.189 210.282 298.568 211.12 295.905C213.019 289.849 215.209 284.714 217.324 279.745C222.292 268.074 226.588 258.003 224.44 242.142C220.6 213.789 197.459 201.354 172.958 188.189C171.822 187.575 170.677 186.962 169.533 186.348L169.193 186.165L168.836 185.974C158.709 180.616 151.269 171.756 147.902 161.03C146.135 155.422 144.534 148.894 143.132 141.611C141.465 132.975 138.546 124.995 134.457 117.902C126.428 104.008 115.853 96.1519 103.876 95.1813C103.37 95.0735 102.076 94.8495 100.144 94.8495V94.8827Z" fill="#191924"/>
<g style="mix-blend-mode:multiply">
<path d="M206.151 341.189C204.899 338.975 204.086 336.552 203.788 334.031C202.967 327.361 201.971 313.674 205.861 303.537C206.923 300.799 208.001 298.045 208.88 295.233C215.292 274.81 225.07 264.291 222.109 242.483C221.653 239.09 220.89 235.946 219.878 232.993C220.169 237.522 219.845 242.068 218.866 246.456C218.22 249.368 217.249 252.205 215.963 254.892C214.636 257.647 212.92 260.135 211.004 262.516C207.114 267.352 202.436 271.55 197.086 274.71C192.516 277.414 187.589 279.248 182.497 280.451C184.686 282.69 186.445 285.337 187.622 288.281C193.793 303.644 195.941 318.327 191.968 332.031C191.263 334.437 191.371 337.009 192.4 339.298L198.596 353.102C198.927 353.832 199.566 354.379 200.329 354.595L209.959 357.166C212.239 357.78 214.122 355.341 212.961 353.292L206.151 341.189Z" fill="#EFE7DB"/>
</g>
<g style="mix-blend-mode:multiply">
<path d="M121.41 277.207C115.148 275.979 108.927 274.561 102.74 273.01L82.7426 332.114C82.7426 332.114 79.6323 341.43 68.6508 341.903C68.6508 341.903 64.8438 343.097 66.2621 349.783H84.6503C84.6503 349.783 95.1507 346.2 98.4849 346.2L101.595 323.288C101.595 323.288 124.52 286.514 128.087 279.596C128.817 279.372 129.513 279.09 130.185 278.767C127.257 278.285 124.33 277.779 121.418 277.207H121.41Z" fill="#EFE7DB"/>
</g>
<path d="M103.503 97.5206C103.503 97.5206 100.517 96.7408 95.4493 97.6367C95.1175 97.9603 94.794 98.2838 94.4457 98.5824C92.2726 100.524 89.9253 102.216 87.5698 103.916C84.982 105.775 82.444 107.674 79.9392 109.657C77.7827 111.366 75.4686 113.066 72.7647 113.771C72.3334 113.879 70.5419 114.128 69.6793 114.028C69.6876 113.929 69.7042 113.838 69.7373 113.73C69.9281 113.05 70.2682 112.452 70.6414 111.855C70.9151 111.432 71.1888 111.034 71.504 110.644C71.363 110.76 71.222 110.893 71.081 111.025C68.3107 113.572 66.4943 117.006 65.9635 120.739L64.9599 127.79C64.877 128.413 64.7443 129.043 64.6033 129.657C66.2787 126.538 68.1117 123.502 70.0525 120.549C72.8974 120.665 75.8999 119.736 78.2886 118.549C81.7224 116.824 84.559 114.103 87.6362 111.838C90.8543 109.466 94.1637 107.218 97.2657 104.68C99.3807 102.954 102.715 100.457 103.636 97.5372C103.594 97.5372 103.553 97.5289 103.503 97.5289V97.5206ZM69.2148 113.821C69.0821 113.108 69.2812 113.63 69.4305 113.987C69.3143 113.954 69.2231 113.904 69.2148 113.821Z" fill="#CB181C"/>
<path d="M77.426 172.229C75.2032 176.625 72.9804 181.022 70.7575 185.419C67.4067 192.047 63.9646 199.197 64.9599 206.555C65.5488 204.672 66.4943 202.897 67.7302 201.354C67.7302 207.202 69.1236 213.051 71.7777 218.268C72.0763 216.543 72.9306 214.925 74.1664 213.698C70.9483 227.858 76.9947 243.677 88.8305 252.08C88.6232 248.936 88.4158 245.792 88.2085 242.648C90.9621 247.659 95.9469 251.392 101.529 252.611C107.144 246.108 110.735 237.895 111.706 229.359C112.369 233.532 113.033 237.713 113.696 241.885C126.337 232.122 133.345 215.539 131.554 199.662C134.175 201.52 137.492 202.349 140.677 201.951C133.171 197.322 125.872 190.446 125.424 181.636C125.25 178.268 126.121 174.917 126.104 171.54C126.088 168.164 124.885 164.431 121.874 162.905" fill="#EFE7DB"/>
<path d="M77.426 172.229C75.2032 176.625 72.9804 181.022 70.7575 185.419C67.4067 192.047 63.9646 199.197 64.9599 206.555C65.5488 204.672 66.4943 202.897 67.7302 201.354C67.7302 207.202 69.1236 213.051 71.7777 218.268C72.0763 216.543 72.9306 214.925 74.1664 213.698C70.9483 227.858 76.9947 243.677 88.8305 252.08C88.6232 248.936 88.4158 245.792 88.2085 242.648C90.9621 247.659 95.9469 251.392 101.529 252.611C107.144 246.108 110.735 237.895 111.706 229.359C112.369 233.532 113.033 237.713 113.696 241.885C126.337 232.122 133.345 215.539 131.554 199.662C134.175 201.52 137.492 202.349 140.677 201.951C133.171 197.322 125.872 190.446 125.424 181.636C125.25 178.268 126.121 174.917 126.104 171.54C126.088 168.164 124.885 164.431 121.874 162.905" stroke="#191924" stroke-width="2.8" stroke-linecap="round" stroke-linejoin="round"/>
<path d="M56.674 151.167C54.9571 155.074 49.624 156.053 46.7542 156.227C45.8501 155.016 45.0788 153.813 44.4899 152.76C43.4863 151.009 44.1001 148.778 45.8253 147.741L48.1891 146.331C48.554 146.306 48.9107 146.331 49.2756 146.38C50.6608 146.596 52.0044 147.55 52.3113 148.919C52.3694 149.126 52.386 149.325 52.5187 149.491C52.6597 149.665 52.8836 149.74 53.0992 149.782C53.5637 149.881 54.0531 149.889 54.5258 149.823C54.9157 149.765 55.2889 149.657 55.6787 149.674C56.0686 149.674 56.4916 149.823 56.6823 150.163C56.8648 150.462 56.815 150.852 56.674 151.167Z" fill="#191924"/>
<path d="M57.18 163.826C65.0428 160.914 73.6522 158.882 79.1761 152.079C76.157 160.383 65.6483 164.937 57.2546 164.489C56.898 164.464 56.8316 163.925 57.18 163.826Z" fill="#191924"/>
<path d="M76.2648 162.532C76.0326 162.532 75.8004 162.482 75.5847 162.374C74.7221 161.967 73.4697 161.354 72.4329 160.79C72.1592 160.64 71.9851 160.35 71.9934 160.035C71.9934 159.719 72.1758 159.429 72.4495 159.288C73.4199 158.782 74.2908 158.143 74.971 157.43C75.1285 157.264 75.3525 157.164 75.5847 157.164C75.6013 157.164 75.6262 157.164 75.6428 157.164C75.8999 157.181 76.1321 157.314 76.2731 157.521C76.6961 158.11 77.4509 159.288 77.7744 160.557C77.8988 161.038 77.791 161.528 77.4924 161.918C77.1938 162.299 76.7293 162.532 76.2483 162.532H76.2648Z" fill="white"/>
<path d="M75.593 158.019C75.9911 158.583 76.6713 159.653 76.9616 160.773C77.086 161.254 76.7044 161.685 76.2648 161.685C76.1653 161.685 76.0575 161.661 75.9497 161.611C75.0871 161.204 73.8678 160.607 72.8477 160.051C73.8844 159.512 74.8383 158.807 75.593 158.027M75.593 156.318C75.1285 156.318 74.6807 156.509 74.3572 156.849C73.7434 157.496 72.9472 158.077 72.0597 158.541C71.504 158.832 71.1473 159.404 71.1391 160.035C71.1391 160.665 71.4708 161.246 72.0265 161.553C72.8725 162.017 73.9425 162.556 75.2198 163.162C75.5516 163.32 75.8999 163.394 76.2648 163.394C77.0113 163.394 77.7246 163.038 78.1808 162.449C78.6453 161.851 78.8029 161.088 78.6121 160.35C78.2472 158.94 77.4343 157.662 76.9781 157.023C76.6796 156.609 76.2151 156.352 75.7091 156.31C75.6677 156.31 75.6262 156.31 75.5847 156.31L75.593 156.318Z" fill="#191924"/>
<path d="M94.7525 105.799C94.7525 105.799 104.979 82.9622 130.583 73.5303C131.421 73.2234 132.325 73.7792 132.441 74.6585C132.649 76.2595 132.922 78.9472 132.98 82.3483C134.216 81.3197 135.319 80.1252 136.232 78.7979C135.842 81.3529 135.278 83.883 134.531 86.3633C134.142 87.6574 133.685 88.9681 133.047 90.1626C134.531 89.3579 135.867 88.2795 136.945 86.9855C137.02 90.9175 135.634 94.8329 133.196 97.9105C134.44 97.4459 135.576 96.6828 136.456 95.6956C136.638 96.6745 136.215 97.645 135.8 98.5492C134.614 101.129 133.354 103.709 131.67 105.99C130.816 107.143 129.845 108.222 128.759 109.159C129.936 108.993 131.172 108.885 132.101 108.172C130.583 110.511 129.414 113.074 127.83 115.372C126.569 117.197 124.96 118.873 123.011 119.877C121.767 121.76 120.382 123.618 118.831 125.418" fill="#EFE7DB"/>
<path d="M94.7525 105.799C94.7525 105.799 104.979 82.9622 130.583 73.5303C131.421 73.2234 132.325 73.7792 132.441 74.6585C132.649 76.2595 132.922 78.9472 132.98 82.3483C134.216 81.3197 135.319 80.1252 136.232 78.7979C135.842 81.3529 135.278 83.883 134.531 86.3633C134.142 87.6574 133.685 88.9681 133.047 90.1626C134.531 89.3579 135.867 88.2795 136.945 86.9855C137.02 90.9175 135.634 94.8329 133.196 97.9105C134.44 97.4459 135.576 96.6828 136.456 95.6956C136.638 96.6745 136.215 97.645 135.8 98.5492C134.614 101.129 133.354 103.709 131.67 105.99C130.816 107.143 129.845 108.222 128.759 109.159C129.936 108.993 131.172 108.885 132.101 108.172C130.583 110.511 129.414 113.074 127.83 115.372C126.569 117.197 124.96 118.873 123.011 119.877C121.767 121.76 120.382 123.618 118.831 125.418" stroke="#191924" stroke-width="2.8" stroke-linecap="round" stroke-linejoin="round"/>
<path d="M103.437 106.67C105.319 107.492 107.078 108.628 108.629 109.964C110.205 111.316 111.366 113 112.535 114.7C114.75 117.927 116.865 121.61 117.495 125.526C132.383 107.334 130.517 86.355 129.696 80.0339C129.588 79.1795 128.701 78.632 127.896 78.9389C116.127 83.3687 103.478 99.1299 98.6259 105.625C100.268 105.501 101.952 106.015 103.437 106.662V106.67Z" fill="#F49700"/>
<path d="M115.853 121.901C128.253 107.533 126.751 90.5939 126.096 85.5752C126.013 84.9033 125.325 84.4802 124.694 84.7208C113.049 89.1008 100.285 107.724 100.285 107.724C100.285 107.724 106.854 108.023 111.581 116.077" fill="#EFAE9F"/>
<path d="M114.974 121.146C123.293 111.656 126.561 98.4912 124.985 86.0813L124.952 85.7992V85.7245C124.952 85.7909 125.01 85.8241 125.076 85.8158H125.093L125.026 85.8407C120.464 87.6657 116.666 90.9175 113.124 94.3103C108.753 98.599 104.78 103.402 101.239 108.388L100.335 106.571C101.769 106.803 102.897 107.259 104.125 107.915C107.476 109.715 109.931 112.726 111.581 116.077C108.969 112.369 104.913 109.059 100.235 108.885C99.6212 108.91 99.107 108.429 99.0904 107.815C99.0738 107.533 99.1899 107.293 99.3309 107.069C101.156 104.464 103.08 102 105.104 99.5862C110.246 93.6135 115.828 87.6159 123.069 84.1401C123.376 84.0406 124.388 83.5346 124.719 83.518C125.914 83.3106 127.116 84.2231 127.257 85.4259L127.266 85.5006L127.299 85.7992C128.112 92.5185 127.656 99.3954 125.781 105.924C124.023 112.062 120.912 117.828 116.732 122.664C115.72 123.792 113.995 122.332 114.974 121.146Z" fill="#191924"/>
<path d="M93.8817 124.356C93.8817 124.356 87.6362 130.528 79.3005 132.535C77.4177 132.992 75.6345 133.788 74.0752 134.933C72.0597 136.418 70.0608 138.707 70.1603 141.967C70.1603 141.967 71.1473 140.839 73.0882 139.412C75.2944 137.786 77.8076 136.617 80.4368 135.837C84.4844 134.642 92.7205 131.366 93.8817 124.356Z" fill="#191924"/>
<path d="M76.1902 129.168C76.0824 129.217 75.9662 129.267 75.8584 129.309C75.3774 129.499 74.747 129.591 74.4069 129.201C74.1084 128.852 74.2245 128.321 74.3821 127.89C74.9212 126.422 76.0492 124.223 77.7578 123.892C78.1891 123.809 78.6619 123.892 78.9853 124.174C79.3337 124.481 79.4747 124.97 79.4332 125.435C79.3917 125.899 79.1927 126.331 78.9439 126.729C78.2886 127.79 77.3182 128.645 76.1902 129.168Z" fill="#191924"/>
<path d="M110.885 134.336C114.435 134.369 117.885 135.406 121.385 135.961C124.885 136.517 128.684 136.55 131.736 134.734C127.946 138.01 123.699 141.478 118.681 141.511C115.43 141.536 112.336 140.076 109.093 139.786C104.208 139.338 99.4553 141.353 94.9599 143.311C87.3707 146.604 78.5457 144.705 78.5457 144.705C89.9668 144.414 99.4553 134.236 110.876 134.336H110.885Z" fill="#CB181C"/>
<path d="M97.838 158.533C99.2231 160.109 100.127 162.042 101.255 163.809C102.391 165.576 103.876 167.26 105.875 167.899C102.931 167.517 99.729 167.003 97.7384 164.805C96.4446 163.378 95.8723 161.437 94.7277 159.894C93.0025 157.563 90.2405 156.26 87.603 155.041C83.1573 152.992 80.5198 148.346 80.5198 148.346C85.1479 153.274 93.3757 153.456 97.838 158.533Z" fill="#CB181C"/>
<path d="M103.188 146.555C105.444 147.169 107.476 148.413 109.616 149.359C111.756 150.304 114.177 150.96 116.434 150.321C113.464 151.781 110.163 153.274 106.962 152.453C104.88 151.922 103.155 150.47 101.131 149.732C98.0868 148.62 94.7111 149.11 91.5095 149.607C86.11 150.437 80.7935 147.733 80.7935 147.733C88.1338 149.466 95.9054 144.572 103.188 146.555Z" fill="#F49700"/>
<path d="M89.9502 120.905C91.4349 118.873 94.7028 118.981 96.8261 120.134C99.4719 121.461 100.451 124.771 99.4636 127.533C98.1366 131.399 94.3296 133.589 90.8045 135.464C90.6884 135.513 90.7714 135.704 90.8875 135.655C93.5001 134.709 96.1709 133.672 98.4435 131.789C104.009 127.45 103.478 118.815 96.5026 116.028C93.2264 114.601 88.9964 114.916 86.3008 117.645C83.9204 120.167 87.7191 123.552 89.9502 120.905Z" fill="#CB181C"/>
<path d="M96.486 133.937C96.3948 133.954 96.4446 134.112 96.5358 134.095C99.6627 133.423 102.732 132.701 105.585 131.042C109.151 129.25 112.328 123.203 108.007 120.117C105.908 119.031 104.133 120.947 104.407 122.697C104.44 122.913 104.506 123.137 104.614 123.344C104.813 123.742 105.145 124.116 105.643 124.398C108.728 127.674 101.205 132.917 96.486 133.937Z" fill="#F49700"/>
<path d="M47.7744 147.517C47.7246 147.417 47.6583 147.318 47.567 147.235C47.3182 146.994 46.9864 146.903 46.663 146.862C45.2198 146.704 42.0514 147.957 42.2256 150.13C42.3168 151.258 43.0716 151.996 43.901 152.444C44.888 152.975 46.6381 153.365 46.804 151.598C46.8537 151.092 46.7625 150.619 46.9035 150.122C47.0279 149.707 47.2767 149.441 47.509 149.118C47.8241 148.678 48.0149 148.015 47.7661 147.517H47.7744Z" fill="white"/>
<path d="M138.148 268.107C138.148 268.107 137.418 264.2 147.18 259.422C147.18 259.422 139.748 256.792 140.105 251.956C140.105 251.956 148.789 252.138 151.783 247.12C151.783 247.12 137.857 247.012 138.977 242.947" fill="#EFE7DB"/>
<path d="M137.011 268.314C136.854 263.619 143.066 260.243 146.674 258.377L146.798 260.517C143.132 259.057 138.778 256.369 138.952 251.873C138.985 251.267 139.491 250.795 140.088 250.795C142.096 250.786 144.285 250.479 146.201 249.824C148.034 249.202 149.776 248.165 150.796 246.531L151.783 248.289C148.988 247.974 137.733 247.095 138.786 242.897C138.828 242.789 138.952 242.731 139.06 242.773C139.16 242.806 139.209 242.914 139.193 243.013C139.093 243.553 139.301 244.042 139.715 244.382C141.1 245.411 142.958 245.593 144.659 245.817C147.014 246.058 149.444 246.074 151.8 245.967C152.422 245.933 152.953 246.415 152.986 247.028C153.002 247.286 152.928 247.534 152.787 247.725C150.805 250.911 147.08 252.288 143.564 252.835C142.411 253.009 141.308 253.117 140.088 253.117L141.275 252.039C141.183 254.436 143.365 256.12 145.289 257.24C146.019 257.655 146.832 258.045 147.578 258.327C148.184 258.551 148.49 259.231 148.267 259.837C148.159 260.119 147.951 260.343 147.703 260.467C145.836 261.404 143.987 262.441 142.353 263.727C141.042 264.855 139.632 266.083 139.317 267.8C139.309 267.85 139.317 267.999 139.301 267.883C139.558 269.376 137.318 269.808 137.02 268.306L137.011 268.314Z" fill="#191924"/>
<path d="M138.662 356.096C109.209 356.096 85.687 351.409 68.7503 342.152C68.7089 342.127 63.7821 339.489 56.3257 337.233C49.1512 335.059 42.1344 333.956 35.4658 333.956C28.026 333.956 21.1252 335.349 14.9461 338.112C12.7315 339.099 10.5916 340.26 8.60104 341.571C8.34392 341.745 8.04533 341.828 7.74674 341.828C7.48962 341.828 7.22421 341.762 6.98368 341.629C6.47774 341.347 6.16256 340.8 6.17915 340.219C6.17915 339.995 6.36162 335.515 10.6497 330.364C8.12828 331.235 6.0962 333.773 4.59496 337.946C4.37102 338.576 3.77384 338.983 3.12689 338.983C3.03566 338.983 2.94442 338.983 2.85319 338.958C2.10671 338.825 1.5593 338.178 1.5593 337.415C1.5593 336.345 1.87447 311.077 22.8753 294.395C29.718 288.962 38.0536 285.063 47.6417 282.823C54.3019 281.255 61.7086 280.459 69.6378 280.459C78.1808 280.459 87.5532 281.38 97.5145 283.205C109.442 285.378 120.506 286.763 131.338 287.427C140.478 287.991 149.146 288.273 157.108 288.273C193.171 288.273 216.503 282.483 224.573 271.525C227.957 266.937 228.654 261.33 226.646 254.868C226.439 254.196 226.704 253.466 227.293 253.092C227.55 252.926 227.849 252.843 228.139 252.843C228.513 252.843 228.886 252.976 229.184 253.242C230.586 254.503 263.514 284.399 257.061 312.628C253.445 328.464 238.109 340.385 211.485 348.075C211.46 348.075 211.427 348.091 211.402 348.099C211.053 348.182 176.433 356.088 138.662 356.088V356.096Z" fill="#EFE7DB"/>
<path d="M228.139 254.42C228.139 254.42 301.75 320.393 211.053 346.59C211.053 346.59 176.699 354.545 138.662 354.545C114.468 354.545 88.7725 351.326 69.4968 340.8C69.4968 340.8 64.4954 338.095 56.7736 335.756C50.9013 333.981 43.4614 332.413 35.4576 332.413C28.6066 332.413 21.3409 333.558 14.2991 336.702C12.0763 337.689 9.88665 338.867 7.73016 340.277C7.73016 340.277 7.88775 334.528 14.4816 328.663C13.9342 328.556 13.3287 328.481 12.6984 328.481C9.58806 328.481 5.71468 330.206 3.11861 337.44C3.11861 337.44 3.19325 312.039 23.8374 295.639C29.9254 290.803 37.7965 286.747 47.99 284.366C54.277 282.881 61.4515 282.043 69.6295 282.043C77.7827 282.043 86.9395 282.881 97.2242 284.764C108.471 286.813 119.818 288.306 131.23 289.011C140.462 289.575 149.088 289.858 157.1 289.858C209.685 289.858 235.355 277.721 228.131 254.428M228.131 251.301C227.55 251.301 226.962 251.466 226.447 251.798C225.261 252.553 224.73 254.013 225.153 255.357C227.028 261.404 226.431 266.398 223.312 270.629C217.896 277.979 202.013 286.747 157.1 286.747C149.171 286.747 140.528 286.465 131.421 285.909C120.655 285.245 109.649 283.877 97.7799 281.711C87.7357 279.878 78.2637 278.941 69.6295 278.941C61.5759 278.941 54.0531 279.754 47.2685 281.346C37.4565 283.636 28.9135 287.626 21.8883 293.209C0.323472 310.322 0 336.32 0 337.423C0 338.941 1.08654 340.244 2.58778 340.509C2.77025 340.542 2.95272 340.559 3.1269 340.559C3.65773 340.559 4.16367 340.426 4.61156 340.177C4.57838 341.339 5.20044 342.425 6.21233 342.99C6.6851 343.255 7.20763 343.388 7.73016 343.388C8.32734 343.388 8.92452 343.213 9.44706 342.873C11.3713 341.612 13.4283 340.484 15.5599 339.539C21.5399 336.868 28.2333 335.515 35.4493 335.515C41.9602 335.515 48.8278 336.594 55.8612 338.726C63.1518 340.932 67.9624 343.504 68.0122 343.529C85.1645 352.894 108.936 357.656 138.662 357.656C176.616 357.656 211.41 349.7 211.758 349.626C211.816 349.609 211.866 349.601 211.924 349.584C239.129 341.729 254.83 329.41 258.587 312.985C265.239 283.868 231.664 253.374 230.229 252.089C229.641 251.558 228.894 251.292 228.148 251.292L228.131 251.301Z" fill="#191924"/>
<g style="mix-blend-mode:multiply">
<path d="M38.3439 318.725C42.3915 315.781 46.6464 313.11 51.1335 310.886C55.4548 308.746 59.9917 307.178 64.653 305.975C74.4401 303.445 84.6917 302.309 94.7691 301.886C114.824 301.04 134.896 299.862 154.802 297.191C164.797 295.847 174.733 294.13 184.57 291.898C189.522 290.77 194.432 289.509 199.309 288.099C203.871 286.772 208.341 285.212 212.861 283.769C218.866 281.852 225.933 279.347 228.72 273.151C230.238 269.783 230.379 265.618 229.947 262.01C229.748 260.326 229.375 258.642 228.836 257.016C228.662 256.203 228.446 255.382 228.181 254.536C228.181 254.536 301.792 320.509 211.095 346.706C211.095 346.706 119.121 367.992 69.5383 340.907C69.5383 340.907 64.5369 338.203 56.815 335.864C47.6334 333.085 34.595 330.82 21.5814 334.263C26.251 328.232 32.1897 323.205 38.3356 318.725H38.3439Z" fill="#EFE7DB"/>
</g>
<path d="M14.2991 336.685C29.5687 329.874 45.875 332.438 56.7653 335.739C57.1966 332.363 57.2878 328.945 57.0141 325.561C56.1266 314.428 49.4913 306.556 46.8206 296.17C45.8087 292.247 46.7127 288.281 47.99 284.358C37.7965 286.738 29.9254 290.795 23.8374 295.631C23.9618 300.061 25.9856 304.549 27.6528 308.796C29.9005 314.487 30.4479 322.317 26.1183 327.477C22.6099 331.658 18.1062 333.566 14.2908 336.677L14.2991 336.685Z" fill="#F49700"/>
<path d="M37.979 397.44C37.8629 397.44 37.7385 397.424 37.6223 397.399C37.0583 397.266 36.6104 396.827 36.4612 396.263C36.4031 396.047 35.3414 391.683 38.0619 385.545C35.8723 387.063 34.6199 390.066 34.3213 394.52C34.2715 395.284 33.6826 395.889 32.9278 395.972C32.8698 395.972 32.82 395.972 32.762 395.972C32.0735 395.972 31.4515 395.516 31.2607 394.836C30.9704 393.807 24.3185 369.427 39.9281 347.618C45.0124 340.509 51.9547 334.478 60.564 329.684C72.997 322.732 89.1623 318.244 108.612 316.336C120.68 315.15 131.695 313.433 142.295 311.094C191.612 300.202 221.023 286.232 227.36 270.687C229.607 265.179 228.803 259.422 224.979 253.573C224.598 252.985 224.647 252.213 225.112 251.69C225.419 251.342 225.85 251.16 226.281 251.16C226.514 251.16 226.746 251.209 226.962 251.317C228.662 252.138 268.532 271.832 270.091 300.749C270.962 316.967 259.5 332.653 236.019 347.361C235.994 347.378 235.969 347.394 235.944 347.403C235.297 347.759 170.943 383.081 118.225 383.081C110.644 383.081 103.561 382.351 97.1579 380.908C97.1081 380.899 91.6505 379.722 83.854 379.597C83.431 379.597 82.9997 379.589 82.5601 379.589C71.7611 379.589 56.3506 381.712 44.3074 391.824C42.4495 393.384 40.7161 395.085 39.1568 396.893C38.8582 397.241 38.4186 397.432 37.9707 397.432L37.979 397.44Z" fill="#EFE7DB"/>
<path d="M226.281 252.719C226.281 252.719 315.195 295.905 235.189 346.034C235.189 346.034 171.15 381.522 118.225 381.522C111.051 381.522 104.075 380.866 97.4979 379.39C97.4979 379.39 91.9408 378.162 83.8789 378.038C83.4476 378.038 83.008 378.029 82.5601 378.029C71.2552 378.029 55.6207 380.286 43.3038 390.63C41.4377 392.189 39.6544 393.923 37.9707 395.881C37.9707 395.881 36.5441 390.315 41.2718 382.857C37.9541 383.123 33.3674 385.188 32.762 394.421C32.762 394.421 25.8446 369.983 41.1971 348.539C45.7174 342.218 52.1703 336.154 61.3188 331.061C72.5822 324.765 87.9347 319.945 108.761 317.896C120.141 316.776 131.463 315.092 142.626 312.628C210.995 297.531 241.659 276.245 226.281 252.727M226.281 249.6C225.402 249.6 224.548 249.973 223.934 250.662C223.005 251.715 222.897 253.258 223.66 254.436C227.235 259.903 227.973 265.029 225.9 270.106C219.853 284.938 190.036 298.958 141.946 309.576C131.413 311.907 120.456 313.607 108.446 314.785C88.7725 316.71 72.3998 321.272 59.7843 328.332C50.9842 333.234 43.8678 339.422 38.6425 346.722C22.6016 369.137 29.4443 394.222 29.7429 395.275C30.1244 396.628 31.3602 397.548 32.7454 397.548C32.8532 397.548 32.961 397.548 33.0771 397.532C33.7987 397.457 34.4457 397.134 34.935 396.652C35.2253 397.781 36.1128 398.652 37.2491 398.917C37.4813 398.975 37.7219 399 37.9624 399C38.8582 399 39.7291 398.61 40.3262 397.913C41.8275 396.171 43.4946 394.52 45.2861 393.027C56.9809 383.214 71.9934 381.157 82.5352 381.157C82.9665 381.157 83.3895 381.157 83.8043 381.165C91.4183 381.281 96.7514 382.434 96.8012 382.442C103.296 383.902 110.503 384.649 118.192 384.649C146.019 384.649 176.774 374.885 197.667 366.689C220.227 357.847 236.516 348.863 236.674 348.771C236.724 348.747 236.774 348.713 236.815 348.688C260.81 333.649 272.521 317.498 271.617 300.666C270.017 270.844 229.342 250.753 227.609 249.915C227.169 249.7 226.704 249.6 226.248 249.6H226.281Z" fill="#191924"/>
<g style="mix-blend-mode:multiply">
<path d="M61.4846 366.748C64.5618 362.807 67.9292 359.066 71.6284 355.698C75.1949 352.455 79.1263 349.7 83.2817 347.253C91.9906 342.127 101.537 338.22 111.117 335.034C130.169 328.705 149.137 322.052 167.542 314.005C176.782 309.966 185.864 305.586 194.706 300.724C199.151 298.277 203.531 295.714 207.827 293.018C211.85 290.488 215.715 287.759 219.671 285.129C224.921 281.637 231.026 277.29 231.996 270.562C232.527 266.912 231.523 262.864 230.113 259.513C229.458 257.945 228.637 256.427 227.667 255.017C227.277 254.287 226.837 253.549 226.356 252.81C226.356 252.81 315.27 295.996 235.264 346.125C235.264 346.125 152.687 391.883 97.5726 379.481C97.5726 379.481 92.0155 378.253 83.9535 378.129C74.3572 377.979 61.2026 379.39 49.6406 386.275C52.4689 379.191 56.7984 372.728 61.4846 366.731V366.748Z" fill="#EFE7DB"/>
</g>
<path d="M43.3121 390.63C56.1183 379.879 72.4993 377.863 83.8872 378.038C83.373 374.678 82.527 371.368 81.3326 368.183C77.4177 357.722 68.8748 351.973 63.4504 342.724C61.3934 339.223 61.1778 335.175 61.3354 331.044C52.1869 336.138 45.734 342.201 41.2137 348.523C42.5491 352.753 45.734 356.503 48.5043 360.136C52.2284 364.989 54.9074 372.363 52.162 378.519C49.9392 383.504 46.1322 386.574 43.3204 390.622L43.3121 390.63Z" fill="#CB181C"/>
</svg>
